{
    "asset" : {
        "generator" : "Khronos glTF Blender I/O v1.6.16",
        "version" : "2.0"
    },
    "scene" : 0,
    "scenes" : [
        {
            "name" : "Scene",
            "nodes" : [
                0,
                2,
                3,
                5
            ]
        }
    ],
    "nodes" : [
        {
            "name" : "Node_0",
            "rotation" : [
                -0.7071068286895752,
                0,
                0,
                0.7071068286895752
            ]
        },
        {
            "mesh" : 0,
            "name" : "Layer.1"
        },
        {
            "children" : [
                1
            ],
            "name" : "Node_0.001",
            "rotation" : [
                -0.477714478969574,
                0.5213337540626526,
                0.5213337540626526,
                0.477714478969574
            ],
            "scale" : [
                0.4775010347366333,
                0.4775010347366333,
                0.4775010347366333
            ],
            "translation" : [
                0,
                0,
                7.173976421356201
            ]
        },
        {
            "mesh" : 1,
            "name" : "Layer.001",
            "rotation" : [
                1,
                0,
                0,
                0
            ],
            "scale" : [
                0.10345166176557541,
                0.10345166176557541,
                0.10345166176557541
            ],
            "translation" : [
                0,
                -1.3527858257293701,
                0
            ]
        },
        {
            "mesh" : 2,
            "name" : "Layer.002"
        },
        {
            "children" : [
                4
            ],
            "name" : "Node_0.002",
            "rotation" : [
                -0.477714478969574,
                0.5213337540626526,
                0.5213337540626526,
                0.477714478969574
            ],
            "scale" : [
                0.4775010347366333,
                0.4775010347366333,
                0.4775010347366333
            ],
            "translation" : [
                0,
                0,
                -11.179582595825195
            ]
        }
    ],
    "materials" : [
        {
            "name" : "Material.008",
            "pbrMetallicRoughness" : {
                "baseColorTexture" : {
                    "index" : 0
                },
                "metallicFactor" : 0.20000000298023224,
                "roughnessFactor" : 0.5
            }
        },
        {
            "name" : "Material.002",
            "pbrMetallicRoughness" : {
                "baseColorTexture" : {
                    "index" : 1
                },
                "metallicFactor" : 0.20000000298023224,
                "roughnessFactor" : 0.5
            }
        },
        {
            "name" : "Material.009",
            "pbrMetallicRoughness" : {
                "baseColorTexture" : {
                    "index" : 2
                },
                "metallicFactor" : 0.20000000298023224,
                "roughnessFactor" : 0.5
            }
        }
    ],
    "meshes" : [
        {
            "name" : "Mesh_0.001",
            "primitives" : [
                {
                    "attributes" : {
                        "POSITION" : 0,
                        "NORMAL" : 1,
                        "TEXCOORD_0" : 2
                    },
                    "indices" : 3,
                    "material" : 0
                }
            ]
        },
        {
            "name" : "Mesh_1.001",
            "primitives" : [
                {
                    "attributes" : {
                        "POSITION" : 4,
                        "NORMAL" : 5,
                        "TEXCOORD_0" : 6
                    },
                    "indices" : 7,
                    "material" : 1
                }
            ]
        },
        {
            "name" : "Mesh_0.002",
            "primitives" : [
                {
                    "attributes" : {
                        "POSITION" : 8,
                        "NORMAL" : 9,
                        "TEXCOORD_0" : 10
                    },
                    "indices" : 3,
                    "material" : 2
                }
            ]
        }
    ],
    "textures" : [
        {
            "sampler" : 0,
            "source" : 0
        },
        {
            "sampler" : 0,
            "source" : 1
        },
        {
            "sampler" : 0,
            "source" : 0
        }
    ],
    "images" : [
        {
            "bufferView" : 4,
            "mimeType" : "image/png",
            "name" : "Image_0"
        },
        {
            "bufferView" : 9,
            "mimeType" : "image/png",
            "name" : "Image_0"
        }
    ],
    "accessors" : [
        {
            "bufferView" : 0,
            "componentType" : 5126,
            "count" : 2664,
            "max" : [
                4,
                8,
                36
            ],
            "min" : [
                -2,
                -8,
                0
            ],
            "type" : "VEC3"
        },
        {
            "bufferView" : 1,
            "componentType" : 5126,
            "count" : 2664,
            "type" : "VEC3"
        },
        {
            "bufferView" : 2,
            "componentType" : 5126,
            "count" : 2664,
            "type" : "VEC2"
        },
        {
            "bufferView" : 3,
            "componentType" : 5123,
            "count" : 6444,
            "type" : "SCALAR"
        },
        {
            "bufferView" : 5,
            "componentType" : 5126,
            "count" : 10830,
            "max" : [
                16.00004768371582,
                15.999811172485352,
                15.999719619750977
            ],
            "min" : [
                -15.999951362609863,
                -16.00018882751465,
                -16.00027847290039
            ],
            "type" : "VEC3"
        },
        {
            "bufferView" : 6,
            "componentType" : 5126,
            "count" : 10830,
            "type" : "VEC3"
        },
        {
            "bufferView" : 7,
            "componentType" : 5126,
            "count" : 10830,
            "type" : "VEC2"
        },
        {
            "bufferView" : 8,
            "componentType" : 5123,
            "count" : 42912,
            "type" : "SCALAR"
        },
        {
            "bufferView" : 10,
            "componentType" : 5126,
            "count" : 2664,
            "max" : [
                4,
                8,
                36
            ],
            "min" : [
                -2,
                -8,
                0
            ],
            "type" : "VEC3"
        },
        {
            "bufferView" : 11,
            "componentType" : 5126,
            "count" : 2664,
            "type" : "VEC3"
        },
        {
            "bufferView" : 12,
            "componentType" : 5126,
            "count" : 2664,
            "type" : "VEC2"
        }
    ],
    "bufferViews" : [
        {
            "buffer" : 0,
            "byteLength" : 31968,
            "byteOffset" : 0
        },
        {
            "buffer" : 0,
            "byteLength" : 31968,
            "byteOffset" : 31968
        },
        {
            "buffer" : 0,
            "byteLength" : 21312,
            "byteOffset" : 63936
        },
        {
            "buffer" : 0,
            "byteLength" : 12888,
            "byteOffset" : 85248
        },
        {
            "buffer" : 0,
            "byteLength" : 227,
            "byteOffset" : 98136
        },
        {
            "buffer" : 0,
            "byteLength" : 129960,
            "byteOffset" : 98364
        },
        {
            "buffer" : 0,
            "byteLength" : 129960,
            "byteOffset" : 228324
        },
        {
            "buffer" : 0,
            "byteLength" : 86640,
            "byteOffset" : 358284
        },
        {
            "buffer" : 0,
            "byteLength" : 85824,
            "byteOffset" : 444924
        },
        {
            "buffer" : 0,
            "byteLength" : 235,
            "byteOffset" : 530748
        },
        {
            "buffer" : 0,
            "byteLength" : 31968,
            "byteOffset" : 530984
        },
        {
            "buffer" : 0,
            "byteLength" : 31968,
            "byteOffset" : 562952
        },
        {
            "buffer" : 0,
            "byteLength" : 21312,
            "byteOffset" : 594920
        }
    ],
    "samplers" : [
        {
            "magFilter" : 9729,
            "minFilter" : 9987
        }
    ],
    "buffers" : [
        {
            "byteLength" : 616232,
            "uri" : "data:application/octet-stream;base64,"
        }
    ]
}
