# Goxel 0.15.1
v -3 0 0 1.000000 1.000000 1.000000
v -2 0 0 1.000000 1.000000 1.000000
v -2 1 0 1.000000 1.000000 1.000000
v -3 1 0 1.000000 1.000000 1.000000
v -2 0 -1 1.000000 1.000000 1.000000
v -3 0 -1 1.000000 1.000000 1.000000
v -3 1 -1 1.000000 1.000000 1.000000
v -2 1 -1 1.000000 1.000000 1.000000
v -4 1 0 1.000000 1.000000 1.000000
v -3 2 0 1.000000 1.000000 1.000000
v -4 2 0 1.000000 1.000000 1.000000
v -4 1 -1 1.000000 1.000000 1.000000
v -4 2 -1 1.000000 1.000000 1.000000
v -3 2 -1 1.000000 1.000000 1.000000
v -1 1 0 1.000000 1.000000 1.000000
v -1 2 0 1.000000 1.000000 1.000000
v -2 2 0 1.000000 1.000000 1.000000
v -1 1 -1 1.000000 1.000000 1.000000
v -2 2 -1 1.000000 1.000000 1.000000
v -1 2 -1 1.000000 1.000000 1.000000
v -2 1 -2 1.000000 1.000000 1.000000
v -3 1 -2 1.000000 1.000000 1.000000
v -3 2 -2 1.000000 1.000000 1.000000
v -2 2 -2 1.000000 1.000000 1.000000
v -3 3 0 1.000000 1.000000 1.000000
v -4 3 0 1.000000 1.000000 1.000000
v -4 3 -1 1.000000 1.000000 1.000000
v -3 3 -1 1.000000 1.000000 1.000000
v -1 3 0 1.000000 1.000000 1.000000
v -2 3 0 1.000000 1.000000 1.000000
v -2 3 -1 1.000000 1.000000 1.000000
v -1 3 -1 1.000000 1.000000 1.000000
v -3 3 -2 1.000000 1.000000 1.000000
v -2 3 -2 1.000000 1.000000 1.000000
v -3 4 0 1.000000 1.000000 1.000000
v -4 4 0 1.000000 1.000000 1.000000
v -4 4 -1 1.000000 1.000000 1.000000
v -3 4 -1 1.000000 1.000000 1.000000
v -1 4 0 1.000000 1.000000 1.000000
v -2 4 0 1.000000 1.000000 1.000000
v -2 4 -1 1.000000 1.000000 1.000000
v -1 4 -1 1.000000 1.000000 1.000000
v -3 4 -2 1.000000 1.000000 1.000000
v -2 4 -2 1.000000 1.000000 1.000000
v -3 5 0 1.000000 1.000000 1.000000
v -4 5 0 1.000000 1.000000 1.000000
v -4 5 -1 1.000000 1.000000 1.000000
v -3 5 -1 1.000000 1.000000 1.000000
v -1 5 0 1.000000 1.000000 1.000000
v -2 5 0 1.000000 1.000000 1.000000
v -2 5 -1 1.000000 1.000000 1.000000
v -1 5 -1 1.000000 1.000000 1.000000
v -3 5 -2 1.000000 1.000000 1.000000
v -2 5 -2 1.000000 1.000000 1.000000
v -3 6 0 1.000000 1.000000 1.000000
v -4 6 0 1.000000 1.000000 1.000000
v -4 6 -1 1.000000 1.000000 1.000000
v -3 6 -1 1.000000 1.000000 1.000000
v -1 6 0 1.000000 1.000000 1.000000
v -2 6 0 1.000000 1.000000 1.000000
v -2 6 -1 1.000000 1.000000 1.000000
v -1 6 -1 1.000000 1.000000 1.000000
v -3 6 -2 1.000000 1.000000 1.000000
v -2 6 -2 1.000000 1.000000 1.000000
v -3 7 0 1.000000 1.000000 1.000000
v -4 7 0 1.000000 1.000000 1.000000
v -4 7 -1 1.000000 1.000000 1.000000
v -3 7 -1 1.000000 1.000000 1.000000
v -1 7 0 1.000000 1.000000 1.000000
v -2 7 0 1.000000 1.000000 1.000000
v -2 7 -1 1.000000 1.000000 1.000000
v -1 7 -1 1.000000 1.000000 1.000000
v -3 7 -2 1.000000 1.000000 1.000000
v -2 7 -2 1.000000 1.000000 1.000000
v -3 8 0 1.000000 1.000000 1.000000
v -4 8 0 1.000000 1.000000 1.000000
v -4 8 -1 1.000000 1.000000 1.000000
v -3 8 -1 1.000000 1.000000 1.000000
v -1 8 0 1.000000 1.000000 1.000000
v -2 8 0 1.000000 1.000000 1.000000
v -2 8 -1 1.000000 1.000000 1.000000
v -1 8 -1 1.000000 1.000000 1.000000
v -3 8 -2 1.000000 1.000000 1.000000
v -2 8 -2 1.000000 1.000000 1.000000
v -3 9 0 1.000000 1.000000 1.000000
v -4 9 0 1.000000 1.000000 1.000000
v -4 9 -1 1.000000 1.000000 1.000000
v -3 9 -1 1.000000 1.000000 1.000000
v -1 9 0 1.000000 1.000000 1.000000
v -2 9 0 1.000000 1.000000 1.000000
v -2 9 -1 1.000000 1.000000 1.000000
v -1 9 -1 1.000000 1.000000 1.000000
v -3 9 -2 1.000000 1.000000 1.000000
v -2 9 -2 1.000000 1.000000 1.000000
v -3 10 0 1.000000 1.000000 1.000000
v -4 10 0 1.000000 1.000000 1.000000
v -4 10 -1 1.000000 1.000000 1.000000
v -3 10 -1 1.000000 1.000000 1.000000
v -1 10 0 1.000000 1.000000 1.000000
v -2 10 0 1.000000 1.000000 1.000000
v -2 10 -1 1.000000 1.000000 1.000000
v -1 10 -1 1.000000 1.000000 1.000000
v -3 10 -2 1.000000 1.000000 1.000000
v -2 10 -2 1.000000 1.000000 1.000000
v -4 11 0 1.000000 1.000000 1.000000
v -4 11 -1 1.000000 1.000000 1.000000
v -1 11 -1 1.000000 1.000000 1.000000
v -1 11 0 1.000000 1.000000 1.000000
v -4 10 -2 1.000000 1.000000 1.000000
v -4 11 -2 1.000000 1.000000 1.000000
v -3 11 -2 1.000000 1.000000 1.000000
v -2 11 -2 1.000000 1.000000 1.000000
v -1 10 -2 1.000000 1.000000 1.000000
v -1 11 -2 1.000000 1.000000 1.000000
v -4 12 0 1.000000 1.000000 1.000000
v -4 12 -1 1.000000 1.000000 1.000000
v -1 12 -1 1.000000 1.000000 1.000000
v -1 12 0 1.000000 1.000000 1.000000
v -4 12 -2 1.000000 1.000000 1.000000
v -3 12 -2 1.000000 1.000000 1.000000
v -2 12 -2 1.000000 1.000000 1.000000
v -1 12 -2 1.000000 1.000000 1.000000
v -4 13 0 1.000000 1.000000 1.000000
v -4 13 -1 1.000000 1.000000 1.000000
v -1 13 -1 1.000000 1.000000 1.000000
v -1 13 0 1.000000 1.000000 1.000000
v -4 13 -2 1.000000 1.000000 1.000000
v -3 13 -2 1.000000 1.000000 1.000000
v -2 13 -2 1.000000 1.000000 1.000000
v -1 13 -2 1.000000 1.000000 1.000000
v -3 14 0 1.000000 1.000000 1.000000
v -3 14 -1 1.000000 1.000000 1.000000
v -4 14 -1 1.000000 1.000000 1.000000
v -4 14 0 1.000000 1.000000 1.000000
v -2 14 0 1.000000 1.000000 1.000000
v -2 14 -1 1.000000 1.000000 1.000000
v -1 14 0 1.000000 1.000000 1.000000
v -1 14 -1 1.000000 1.000000 1.000000
v -4 14 -2 1.000000 1.000000 1.000000
v -3 14 -2 1.000000 1.000000 1.000000
v -2 14 -2 1.000000 1.000000 1.000000
v -1 14 -2 1.000000 1.000000 1.000000
v -3 1 1 1.000000 1.000000 1.000000
v -2 1 1 1.000000 1.000000 1.000000
v -2 2 1 1.000000 1.000000 1.000000
v -3 2 1 1.000000 1.000000 1.000000
v -2 3 1 1.000000 1.000000 1.000000
v -3 3 1 1.000000 1.000000 1.000000
v -2 4 1 1.000000 1.000000 1.000000
v -3 4 1 1.000000 1.000000 1.000000
v -2 5 1 1.000000 1.000000 1.000000
v -3 5 1 1.000000 1.000000 1.000000
v -2 6 1 1.000000 1.000000 1.000000
v -3 6 1 1.000000 1.000000 1.000000
v -2 7 1 1.000000 1.000000 1.000000
v -3 7 1 1.000000 1.000000 1.000000
v -2 8 1 1.000000 1.000000 1.000000
v -3 8 1 1.000000 1.000000 1.000000
v -2 9 1 1.000000 1.000000 1.000000
v -3 9 1 1.000000 1.000000 1.000000
v -2 10 1 1.000000 1.000000 1.000000
v -3 10 1 1.000000 1.000000 1.000000
v -4 10 1 1.000000 1.000000 1.000000
v -3 11 1 1.000000 1.000000 1.000000
v -4 11 1 1.000000 1.000000 1.000000
v -2 11 1 1.000000 1.000000 1.000000
v -1 10 1 1.000000 1.000000 1.000000
v -1 11 1 1.000000 1.000000 1.000000
v -3 12 1 1.000000 1.000000 1.000000
v -4 12 1 1.000000 1.000000 1.000000
v -2 12 1 1.000000 1.000000 1.000000
v -1 12 1 1.000000 1.000000 1.000000
v -3 13 1 1.000000 1.000000 1.000000
v -4 13 1 1.000000 1.000000 1.000000
v -2 13 1 1.000000 1.000000 1.000000
v -1 13 1 1.000000 1.000000 1.000000
v -3 14 1 1.000000 1.000000 1.000000
v -4 14 1 1.000000 1.000000 1.000000
v -2 14 1 1.000000 1.000000 1.000000
v -1 14 1 1.000000 1.000000 1.000000
vn 0 0 1
vn 0 0 -1
vn 0 -1 -0
vn 1 0 0
vn -1 0 0
vn 0 1 0
f 1//1 2//1 3//1 4//1
f 5//2 6//2 7//2 8//2
f 1//3 6//3 5//3 2//3
f 2//4 5//4 8//4 3//4
f 1//5 4//5 7//5 6//5
f 9//1 4//1 10//1 11//1
f 7//2 12//2 13//2 14//2
f 9//3 12//3 7//3 4//3
f 9//5 11//5 13//5 12//5
f 3//1 15//1 16//1 17//1
f 18//2 8//2 19//2 20//2
f 3//3 8//3 18//3 15//3
f 15//4 18//4 20//4 16//4
f 21//2 22//2 23//2 24//2
f 7//3 22//3 21//3 8//3
f 8//4 21//4 24//4 19//4
f 7//5 14//5 23//5 22//5
f 11//1 10//1 25//1 26//1
f 14//2 13//2 27//2 28//2
f 11//5 26//5 27//5 13//5
f 17//1 16//1 29//1 30//1
f 20//2 19//2 31//2 32//2
f 16//4 20//4 32//4 29//4
f 24//2 23//2 33//2 34//2
f 19//4 24//4 34//4 31//4
f 14//5 28//5 33//5 23//5
f 26//1 25//1 35//1 36//1
f 28//2 27//2 37//2 38//2
f 26//5 36//5 37//5 27//5
f 30//1 29//1 39//1 40//1
f 32//2 31//2 41//2 42//2
f 29//4 32//4 42//4 39//4
f 34//2 33//2 43//2 44//2
f 31//4 34//4 44//4 41//4
f 28//5 38//5 43//5 33//5
f 36//1 35//1 45//1 46//1
f 38//2 37//2 47//2 48//2
f 36//5 46//5 47//5 37//5
f 40//1 39//1 49//1 50//1
f 42//2 41//2 51//2 52//2
f 39//4 42//4 52//4 49//4
f 44//2 43//2 53//2 54//2
f 41//4 44//4 54//4 51//4
f 38//5 48//5 53//5 43//5
f 46//1 45//1 55//1 56//1
f 48//2 47//2 57//2 58//2
f 46//5 56//5 57//5 47//5
f 50//1 49//1 59//1 60//1
f 52//2 51//2 61//2 62//2
f 49//4 52//4 62//4 59//4
f 54//2 53//2 63//2 64//2
f 51//4 54//4 64//4 61//4
f 48//5 58//5 63//5 53//5
f 56//1 55//1 65//1 66//1
f 58//2 57//2 67//2 68//2
f 56//5 66//5 67//5 57//5
f 60//1 59//1 69//1 70//1
f 62//2 61//2 71//2 72//2
f 59//4 62//4 72//4 69//4
f 64//2 63//2 73//2 74//2
f 61//4 64//4 74//4 71//4
f 58//5 68//5 73//5 63//5
f 66//1 65//1 75//1 76//1
f 68//2 67//2 77//2 78//2
f 66//5 76//5 77//5 67//5
f 70//1 69//1 79//1 80//1
f 72//2 71//2 81//2 82//2
f 69//4 72//4 82//4 79//4
f 74//2 73//2 83//2 84//2
f 71//4 74//4 84//4 81//4
f 68//5 78//5 83//5 73//5
f 76//1 75//1 85//1 86//1
f 78//2 77//2 87//2 88//2
f 76//5 86//5 87//5 77//5
f 80//1 79//1 89//1 90//1
f 82//2 81//2 91//2 92//2
f 79//4 82//4 92//4 89//4
f 84//2 83//2 93//2 94//2
f 81//4 84//4 94//4 91//4
f 78//5 88//5 93//5 83//5
f 86//1 85//1 95//1 96//1
f 88//2 87//2 97//2 98//2
f 86//5 96//5 97//5 87//5
f 90//1 89//1 99//1 100//1
f 92//2 91//2 101//2 102//2
f 89//4 92//4 102//4 99//4
f 94//2 93//2 103//2 104//2
f 91//4 94//4 104//4 101//4
f 88//5 98//5 103//5 93//5
f 96//5 105//5 106//5 97//5
f 99//4 102//4 107//4 108//4
f 103//2 109//2 110//2 111//2
f 97//3 109//3 103//3 98//3
f 97//5 106//5 110//5 109//5
f 104//2 103//2 111//2 112//2
f 113//2 104//2 112//2 114//2
f 101//3 104//3 113//3 102//3
f 102//4 113//4 114//4 107//4
f 105//5 115//5 116//5 106//5
f 108//4 107//4 117//4 118//4
f 111//2 110//2 119//2 120//2
f 106//5 116//5 119//5 110//5
f 112//2 111//2 120//2 121//2
f 114//2 112//2 121//2 122//2
f 107//4 114//4 122//4 117//4
f 115//5 123//5 124//5 116//5
f 118//4 117//4 125//4 126//4
f 120//2 119//2 127//2 128//2
f 116//5 124//5 127//5 119//5
f 121//2 120//2 128//2 129//2
f 122//2 121//2 129//2 130//2
f 117//4 122//4 130//4 125//4
f 131//6 132//6 133//6 134//6
f 123//5 134//5 133//5 124//5
f 135//6 136//6 132//6 131//6
f 137//6 138//6 136//6 135//6
f 126//4 125//4 138//4 137//4
f 128//2 127//2 139//2 140//2
f 132//6 140//6 139//6 133//6
f 124//5 133//5 139//5 127//5
f 129//2 128//2 140//2 141//2
f 136//6 141//6 140//6 132//6
f 130//2 129//2 141//2 142//2
f 138//6 142//6 141//6 136//6
f 125//4 130//4 142//4 138//4
f 143//1 144//1 145//1 146//1
f 143//3 4//3 3//3 144//3
f 144//4 3//4 17//4 145//4
f 143//5 146//5 10//5 4//5
f 146//1 145//1 147//1 148//1
f 145//4 17//4 30//4 147//4
f 146//5 148//5 25//5 10//5
f 148//1 147//1 149//1 150//1
f 147//4 30//4 40//4 149//4
f 148//5 150//5 35//5 25//5
f 150//1 149//1 151//1 152//1
f 149//4 40//4 50//4 151//4
f 150//5 152//5 45//5 35//5
f 152//1 151//1 153//1 154//1
f 151//4 50//4 60//4 153//4
f 152//5 154//5 55//5 45//5
f 154//1 153//1 155//1 156//1
f 153//4 60//4 70//4 155//4
f 154//5 156//5 65//5 55//5
f 156//1 155//1 157//1 158//1
f 155//4 70//4 80//4 157//4
f 156//5 158//5 75//5 65//5
f 158//1 157//1 159//1 160//1
f 157//4 80//4 90//4 159//4
f 158//5 160//5 85//5 75//5
f 160//1 159//1 161//1 162//1
f 159//4 90//4 100//4 161//4
f 160//5 162//5 95//5 85//5
f 163//1 162//1 164//1 165//1
f 163//3 96//3 95//3 162//3
f 163//5 165//5 105//5 96//5
f 162//1 161//1 166//1 164//1
f 161//1 167//1 168//1 166//1
f 161//3 100//3 99//3 167//3
f 167//4 99//4 108//4 168//4
f 165//1 164//1 169//1 170//1
f 165//5 170//5 115//5 105//5
f 164//1 166//1 171//1 169//1
f 166//1 168//1 172//1 171//1
f 168//4 108//4 118//4 172//4
f 170//1 169//1 173//1 174//1
f 170//5 174//5 123//5 115//5
f 169//1 171//1 175//1 173//1
f 171//1 172//1 176//1 175//1
f 172//4 118//4 126//4 176//4
f 174//1 173//1 177//1 178//1
f 177//6 131//6 134//6 178//6
f 174//5 178//5 134//5 123//5
f 173//1 175//1 179//1 177//1
f 179//6 135//6 131//6 177//6
f 175//1 176//1 180//1 179//1
f 180//6 137//6 135//6 179//6
f 176//4 126//4 137//4 180//4
